# File created by Blade
# Date/Time:  Tue Sep 30 19:11:31 2014
#---------------------------------------------------------
:version 1.10
:name HOM
:units
  mass 1.0
  length 1.000000
  angle deg
:documentation
     Acclaim Skeleton File
:root
   axis xyz
   order TX TY TZ RX RY RZ
   position 0.000000 0.000000 0.000000
   orientation 0 0 0
:bonedata
   begin
      id 1
      name Spine_dum
      direction 0.000000 1.000000 0.000000
      length 7.508948
      axis 0.0 0.0 0.0 xyz
   end
   begin
      id 2
      name LeftUpLeg_dum
      direction 1.000000 0.000000 0.000000
      length 3.000560
      axis 0.0 0.0 0.0 xyz
   end
   begin
      id 3
      name RightUpLeg_dum
      direction -1.000000 0.000000 0.000000
      length 3.000560
      axis 0.0 0.0 0.0 xyz
   end
   begin
      id 4
      name Spine
      direction 0.000000 1.000000 0.000000
      length 0.000000
      axis 0.0 0.0 0.0 xyz
      dof rx ry rz
   end
   begin
      id 5
      name Spine_dum1
      direction 0.000000 1.000000 0.000000
      length 13.861154
      axis 0.0 0.0 0.0 xyz
   end
   begin
      id 6
      name Spine_dum2
      direction 0.000000 1.000000 0.000000
      length 8.204781
      axis 0.0 0.0 0.0 xyz
   end
   begin
      id 7
      name Spine_dum3
      direction 0.000000 1.000000 0.000000
      length 8.204781
      axis 0.0 0.0 0.0 xyz
   end
   begin
      id 8
      name Head
      direction 0.000000 1.000000 0.000000
      length 4.527550
      axis 0.0 0.0 0.0 xyz
      dof rx ry rz
   end
   begin
      id 9
      name LeftShoulder
      direction 1.000000 0.000000 0.000000
      length 6.635956
      axis 0.0 0.0 -90.0 xyz
      dof rx ry rz
   end
   begin
      id 10
      name LeftArm
      direction 1.000000 0.000000 0.000000
      length 10.274218
      axis 0.0 0.0 -90.0 xyz
      dof rx ry rz
   end
   begin
      id 11
      name LeftForeArm
      direction 1.000000 0.000000 0.000000
      length 8.522147
      axis 0.0 0.0 -90.0 xyz
      dof ry rz rx
   end
   begin
      id 12
      name LeftHand
      direction 0.000000 0.000000 0.000000
      length 0.000000
      axis 0.0 0.0 -90.0 xyz
      dof rx ry rz
   end
   begin
      id 13
      name LeftHand_dum1
      direction 0.000000 0.000000 0.000000
      length 0.000000
      axis 0.0 0.0 -90.0 xyz
   end
   begin
      id 14
      name LeftHand_dum2
      direction 1.000000 0.000000 0.000000
      length 3.937000
      axis 0.0 0.0 -90.0 xyz
   end
   begin
      id 15
      name LeftHandThumb1
      direction 0.000000 0.000000 1.000000
      length 3.937000
      axis 0.0 0.0 -90.0 xyz
      dof rx rz ry
   end
   begin
      id 16
      name RightShoulder
      direction -1.000000 0.000000 0.000000
      length 6.635956
      axis 0.0 0.0 90.0 xyz
      dof rx ry rz
   end
   begin
      id 17
      name RightArm
      direction -1.000000 0.000000 0.000000
      length 10.274218
      axis 0.0 0.0 90.0 xyz
      dof rx ry rz
   end
   begin
      id 18
      name RightForeArm
      direction -1.000000 0.000000 0.000000
      length 8.522147
      axis 0.0 0.0 90.0 xyz
      dof ry rz rx
   end
   begin
      id 19
      name RightHand
      direction 0.000000 0.000000 0.000000
      length 0.000000
      axis 0.0 0.0 90.0 xyz
      dof rx ry rz
   end
   begin
      id 20
      name RightHand_dum1
      direction 0.000000 0.000000 0.000000
      length 0.000000
      axis 0.0 0.0 90.0 xyz
   end
   begin
      id 21
      name RightHand_dum2
      direction -1.000000 0.000000 0.000000
      length 3.937000
      axis 0.0 0.0 90.0 xyz
   end
   begin
      id 22
      name RightHandThumb1
      direction 0.000000 0.000000 1.000000
      length 3.937000
      axis 0.0 0.0 90.0 xyz
      dof rx rz ry
   end
   begin
      id 23
      name LeftUpLeg
      direction 0.000000 -1.000000 0.000000
      length 16.490845
      axis 0.0 0.0 0.0 xyz
      dof rx ry rz
   end
   begin
      id 24
      name LeftLeg
      direction 0.000000 -1.000000 0.000000
      length 14.556576
      axis 0.0 0.0 0.0 xyz
      dof rx ry rz
   end
   begin
      id 25
      name LeftFoot
      direction 0.000000 -0.258819 0.965926
      length 4.831116
      axis 15.0 0.0 0.0 xyz
      dof rx ry rz
   end
   begin
      id 26
      name LeftToeBase
      direction 0.000000 0.000000 1.000000
      length 2.952750
      axis 0.0 0.0 0.0 xyz
      dof rx ry rz
   end
   begin
      id 27
      name RightUpLeg
      direction 0.000000 -1.000000 0.000000
      length 16.490845
      axis 0.0 0.0 0.0 xyz
      dof rx ry rz
   end
   begin
      id 28
      name RightLeg
      direction 0.000000 -1.000000 0.000000
      length 14.556576
      axis 0.0 0.0 0.0 xyz
      dof rx ry rz
   end
   begin
      id 29
      name RightFoot
      direction 0.000000 -0.258819 0.965926
      length 4.831116
      axis 15.0 0.0 0.0 xyz
      dof rx ry rz
   end
   begin
      id 30
      name RightToeBase
      direction 0.000000 0.000000 1.000000
      length 2.952750
      axis 0.0 0.0 0.0 xyz
      dof rx ry rz
   end
:hierarchy
   begin
      root Spine_dum LeftUpLeg_dum RightUpLeg_dum
      Spine_dum Spine
      LeftUpLeg_dum LeftUpLeg
      RightUpLeg_dum RightUpLeg
      Spine Spine_dum1 Spine_dum2 Spine_dum3
      Spine_dum1 Head
      Spine_dum2 LeftShoulder
      Spine_dum3 RightShoulder
      LeftShoulder LeftArm
      LeftArm LeftForeArm
      LeftForeArm LeftHand
      LeftHand LeftHand_dum1 LeftHand_dum2
      LeftHand_dum1 LeftHandThumb1
      RightShoulder RightArm
      RightArm RightForeArm
      RightForeArm RightHand
      RightHand RightHand_dum1 RightHand_dum2
      RightHand_dum1 RightHandThumb1
      LeftUpLeg LeftLeg
      LeftLeg LeftFoot
      LeftFoot LeftToeBase
      RightUpLeg RightLeg
      RightLeg RightFoot
      RightFoot RightToeBase
   end

# File created by Blade
# Date/Time:  Thu Sep 25 15:31:15 2014
# Frame Rate: 120.000 fps
#------------------------------------------------------
:FULLY-SPECIFIED
:DEGREES
148
root 3.492224 32.390059 -1.292418 7.829358 -44.398780 0.376702
Spine -7.784092 0.789482 1.433204
Head 13.087943 -33.983359 1.675899
LeftShoulder -14.740971 24.265044 10.033400
LeftArm 19.718115 6.640403 -73.656885
LeftForeArm 3.066526 -0.000000 17.552946
LeftHand -27.736754 -0.000000 6.850093
LeftHandThumb1 -26.253704 0.000000 33.147579
RightShoulder -21.924987 5.258110 -25.240004
RightArm -20.243121 -13.752339 84.402695
RightForeArm -21.106235 -0.000000 20.794089
RightHand -5.786267 -0.000000 1.512224
RightHandThumb1 -24.326973 -0.000000 -32.862282
LeftUpLeg -14.856228 -12.918633 16.765605
LeftLeg 51.689529 -0.000000 -0.000000
LeftFoot -9.481958 1.820875 -29.783806
LeftToeBase -6.423595 -0.000000 0.000000
RightUpLeg -18.586724 22.164966 -10.350405
RightLeg 22.534617 -0.000000 -0.000000
RightFoot -18.373710 8.074475 -9.834580
RightToeBase -5.526057 -0.000000 0.000000
149
root 3.605365 32.371895 -1.228829 7.791413 -44.836296 0.368927
Spine -7.839462 0.591184 1.426478
Head 13.169069 -33.875600 1.573146
LeftShoulder -14.752590 24.250917 10.042348
LeftArm 19.852627 6.498773 -73.446395
LeftForeArm 3.015045 0.000000 17.719863
LeftHand -27.746849 -0.000000 6.933034
LeftHandThumb1 -26.253704 0.000000 33.147579
RightShoulder -21.953200 5.176465 -25.227521
RightArm -20.375989 -13.734985 84.621048
RightForeArm -20.862096 -0.000000 20.631816
RightHand -5.629563 -0.000000 1.489526
RightHandThumb1 -24.326973 -0.000000 -32.862282
LeftUpLeg -14.165901 -13.349504 16.920212
LeftLeg 50.613241 -0.000000 -0.000000
LeftFoot -8.978932 1.018530 -29.624451
LeftToeBase -6.746848 -0.000000 0.000000
RightUpLeg -18.822145 22.307742 -10.650993
RightLeg 22.743115 -0.000000 -0.000000
RightFoot -18.392507 8.373453 -9.636805
RightToeBase -5.616115 -0.000000 0.000000
150
root 3.728828 32.352228 -1.161097 7.708308 -45.281417 0.435207
Spine -7.907607 0.423081 1.361845
Head 13.261468 -33.749901 1.479493
LeftShoulder -14.723128 24.203357 10.087432
LeftArm 19.939049 6.449945 -73.207406
LeftForeArm 2.928174 -0.000000 17.958138
LeftHand -27.944747 0.000000 7.155724
LeftHandThumb1 -26.253704 0.000000 33.147579
RightShoulder -21.940055 5.136786 -25.201498
RightArm -20.643393 -13.704055 84.815510
RightForeArm -20.910785 -0.000000 20.662126
RightHand -5.728575 -0.000000 1.601662
RightHandThumb1 -24.326973 -0.000000 -32.862282
LeftUpLeg -13.475587 -13.722035 16.984806
LeftLeg 49.509902 -0.000000 -0.000000
LeftFoot -8.422615 0.168461 -29.507715
LeftToeBase -7.058944 -0.000000 0.000000
RightUpLeg -19.064669 22.440468 -11.036954
RightLeg 22.914016 -0.000000 -0.000000
RightFoot -18.502898 8.670686 -9.618486
RightToeBase -5.628731 -0.000000 0.000000
151
root 3.864234 32.333013 -1.091934 7.631999 -45.744334 0.553207
Spine -8.022409 0.222303 1.253319
Head 13.370331 -33.612649 1.431016
LeftShoulder -14.766263 24.204451 10.145000
LeftArm 20.062494 6.342787 -73.028937
LeftForeArm 2.996538 -0.000000 18.185946
LeftHand -28.027691 -0.000000 7.264803
LeftHandThumb1 -26.253704 0.000000 33.147579
RightShoulder -21.906543 5.141603 -25.203764
RightArm -20.901723 -13.763377 85.034731
RightForeArm -20.861638 -0.000000 20.646353
RightHand -5.740119 -0.000000 1.703810
RightHandThumb1 -24.326973 -0.000000 -32.862282
LeftUpLeg -12.852066 -14.085959 16.969531
LeftLeg 48.412192 -0.000000 -0.000000
LeftFoot -7.742604 -0.819761 -29.549860
LeftToeBase -7.481499 -0.000000 0.000000
RightUpLeg -19.378133 22.468220 -11.474458
RightLeg 23.111498 -0.000000 -0.000000
RightFoot -18.556692 9.043630 -9.457735
RightToeBase -5.701327 -0.000000 0.000000
